<svg width="22px" height="26px" viewBox="0 0 22 26" version="1.1" xmlns="http://www.w3.org/2000/svg" xmlns:xlink="http://www.w3.org/1999/xlink">
    <!-- Generator: Sketch 51.1 (57501) - http://www.bohemiancoding.com/sketch -->
    <desc>Created with Sketch.</desc>
    <defs></defs>
    <g id="Symbols" stroke="none" stroke-width="1" fill="none" fill-rule="evenodd" opacity="0.51015625">
        <g id="Footer" transform="translate(-733.000000, -238.000000)" fill="#484848" fill-rule="nonzero">
            <g id="Group" transform="translate(733.000000, 209.000000)">
                <g id="Apple-Store" transform="translate(0.000000, 29.000000)">
                    <path d="M19.6198331,22.7720612 C18.5311577,24.3570483 17.4050231,25.932286 15.6270193,25.9653038 C13.8771753,25.9983217 13.3162037,24.9334308 11.3194693,24.9334308 C9.32063936,24.9334308 8.6953583,25.932286 7.04320962,25.9983217 C5.32672536,26.0622775 4.02153301,24.2864628 2.92388577,22.7086253 C0.681426714,19.4824948 -1.03010664,13.5867277 1.27172399,9.60792012 C2.4115849,7.63195745 4.45408238,6.38175064 6.66743849,6.34874578 C8.35311712,6.31785979 9.94552749,7.4801793 10.9751325,7.4801793 C12.0063093,7.4801793 13.9391271,6.08468093 15.9710941,6.28936564 C16.8216545,6.32434637 19.2088293,6.63058048 20.7419074,8.86396544 C20.6207543,8.94324729 17.8925171,10.5234767 17.9257851,13.8156429 C17.959184,17.7482775 21.3872278,19.0554726 21.4270446,19.0732814 C21.3960032,19.1657054 20.8790396,20.9394402 19.6198331,22.7720612 Z M12.1545745,1.9692912 C13.0956395,0.871421499 14.6856923,0.0548275318 15.9979443,-4.19047619e-05 C16.165594,1.52495406 15.5493503,3.05205588 14.6391957,4.15246042 C13.7272074,5.25088908 12.2343391,6.10654551 10.7692377,5.99229593 C10.5701537,4.50030483 11.3085983,2.94427988 12.1545745,1.9692912 Z" id="logo"></path>
                </g>
            </g>
        </g>
    </g>
</svg>