
<svg width="22px" height="25px" viewBox="0 0 22 25" version="1.1" xmlns="http://www.w3.org/2000/svg" xmlns:xlink="http://www.w3.org/1999/xlink">
    <!-- Generator: Sketch 51.1 (57501) - http://www.bohemiancoding.com/sketch -->
    <desc>Created with Sketch.</desc>
    <defs></defs>
    <g id="Symbols" stroke="none" stroke-width="1" fill="none" fill-rule="evenodd" opacity="0.51015625">
        <g id="Footer" transform="translate(-774.000000, -240.000000)" fill="#484848" fill-rule="nonzero">
            <g id="Group" transform="translate(733.000000, 209.000000)">
                <g id="Google-Play" transform="translate(41.000000, 31.000000)">
                    <path d="M0,23.289822 L0,1.71269111 C0,0.959738089 0.425207801,0.308882975 1.04225733,0 L13.2,12.4975757 L1.03736776,25 C0.422960572,24.6901778 0,24.0408331 0,23.289822 Z M16.72,16.2637285 L3.52,24.1071429 L13.9305216,13.3928571 L16.72,16.2637285 Z M21.226603,10.5674754 C21.6967328,10.9098662 22,11.4493722 22,12.0562071 C22,12.6539233 21.7059227,13.1861842 21.2478711,13.5291996 L18.2455259,15.1785714 L14.96,12.0525846 L18.243294,8.92857143 L21.226603,10.5674754 Z M3.52,0.892857143 L16.72,8.73628813 L13.9305306,11.6071429 L3.52,0.892857143 Z" id="logo"></path>
                </g>
            </g>
        </g>
    </g>
</svg>