<svg width="47px" height="14px" viewBox="0 0 47 14" version="1.1" xmlns="http://www.w3.org/2000/svg" xmlns:xlink="http://www.w3.org/1999/xlink">
    <!-- Generator: Sketch 51.1 (57501) - http://www.bohemiancoding.com/sketch -->
    <desc>Created with Sketch.</desc>
    <defs></defs>
    <g id="Symbols" stroke="none" stroke-width="1" fill="none" fill-rule="evenodd">
        <g id="Footer" transform="translate(-1028.000000, -114.000000)" fill="#808080">
            <g id="Card-networks/Visa" transform="translate(1028.000000, 114.000000)">
                <g id="Visa">
                    <path d="M34.3038961,0.675737693 L33.7906635,3.59168295 L33.4497436,3.43632153 C32.7530813,3.16421453 31.8544611,2.90198601 30.6177002,2.92084491 C29.1363663,2.92084491 28.4489682,3.51983951 28.4489682,4.07842219 C28.4406304,4.7088483 29.2521679,5.12374411 30.5760116,5.74608783 C32.7604926,6.70789176 33.7675032,7.87265339 33.753607,9.40202042 C33.7239618,12.1976279 31.1411233,14 27.1612546,14 C25.4631402,13.9838352 23.8270955,13.6587437 22.9442242,13.2833618 L23.4759851,10.2704279 L23.9632781,10.4832641 C25.2074503,10.98527 26.0115765,11.1891258 27.5253347,11.1891258 C28.614796,11.1891258 29.782076,10.7787202 29.7931929,9.87618707 C29.7987514,9.28707093 29.3021942,8.86678686 27.8291981,8.20762338 C26.3923321,7.56372663 24.4913333,6.48338104 24.5117144,4.55079275 C24.5348747,1.93389578 27.1705187,0.109072631 30.9104466,0.109072631 C32.3778842,0.109072631 33.5544283,0.402732655 34.3038961,0.675737693 Z M43.9865394,0.109072631 L47,14 L43.5457673,14 C43.5457673,14 43.2042599,12.4036935 43.0931562,11.9176595 C42.5503873,11.9176595 38.7546472,11.9111666 38.3284461,11.9111666 C38.1818256,12.2877503 37.5452559,14 37.5452559,14 L33.6356801,14 L39.1626346,1.26201218 C39.5542297,0.357654932 40.220852,0.109072631 41.1124138,0.109072631 L43.9865394,0.109072631 Z M4.23842724,1.84838859 C3.00897512,1.17907468 1.59330421,0.643459655 0,0.278480669 L0.0461860123,0 L6.2605611,0 C7.09662218,0.0303472524 7.77338864,0.281158368 8.00620385,1.12820374 L9.35502392,7.27620005 C9.27732043,7.08769412 9.19317829,6.90104155 9.10264578,6.71644995 C9.25563915,7.03513572 9.38268277,7.35402587 9.48033938,7.66914626 L9.8771158,9.59653332 L13.5862337,0.109072631 L17.5984962,0.109072631 L11.6338712,13.9944295 L7.6253169,14 L4.23842724,1.84838859 Z M39.3985023,9.06916601 C39.707225,8.26776635 40.8801888,5.18274869 40.8801888,5.18274869 C40.859243,5.22077808 41.1861793,4.37763885 41.37287,3.85635806 L41.6251301,5.05474736 C41.6251301,5.05474736 42.3381974,8.37257904 42.4875499,9.06916601 L39.3985023,9.06916601 Z M16.9302802,14 L19.241873,0.109072631 L22.9442242,0.109072631 L20.6262934,14 L16.9302802,14 Z" id="Fill-1"></path>
                </g>
            </g>
        </g>
    </g>
</svg>