<svg width="80px" height="14px" viewBox="0 0 80 14" version="1.1" xmlns="http://www.w3.org/2000/svg" xmlns:xlink="http://www.w3.org/1999/xlink">
    <!-- Generator: Sketch 51.1 (57501) - http://www.bohemiancoding.com/sketch -->
    <desc>Created with Sketch.</desc>
    <defs></defs>
    <g id="Symbols" stroke="none" stroke-width="1" fill="none" fill-rule="evenodd">
        <g id="Footer" transform="translate(-1086.000000, -114.000000)">
            <g id="Card-networks/MC-Horizontal" transform="translate(1086.000000, 114.000000)">
                <g>
                    <polygon id="Fill-1" fill="#FF5F00" points="8.30053528 12.4739418 14.4319221 12.4739418 14.4319221 1.4960197 8.30053528 1.4960197"></polygon>
                    <path d="M8.68982968,6.98498076 C8.68982968,4.75782361 9.73644769,2.77424965 11.3662287,1.4960197 C10.1744039,0.561055872 8.67036496,0.00329690626 7.03571776,0.00329690626 C3.16593674,0.00329690626 0.0290024331,3.12895798 0.0290024331,6.98498076 C0.0290024331,10.8408096 3.16593674,13.9666646 7.03571776,13.9666646 C8.67036496,13.9666646 10.1744039,13.4089056 11.3662287,12.4739418 C9.73644769,11.1955179 8.68982968,9.21213791 8.68982968,6.98498076" id="Fill-2" fill="#EB001B"></path>
                    <path d="M22.4846715,11.3112975 L22.4846715,11.0401755 L22.4136253,11.0401755 L22.3320681,11.2265476 L22.2503163,11.0401755 L22.1792701,11.0401755 L22.1792701,11.3112975 L22.2294891,11.3112975 L22.2294891,11.1068893 L22.3059854,11.2829829 L22.3579562,11.2829829 L22.4346472,11.1063075 L22.4346472,11.3112975 L22.4846715,11.3112975 Z M22.0350365,11.3112975 L22.0350365,11.0865261 L22.1259367,11.0865261 L22.1259367,11.0405633 L21.8943066,11.0405633 L21.8943066,11.0865261 L21.9852068,11.0865261 L21.9852068,11.3112975 L22.0350365,11.3112975 Z M22.703455,6.98498076 C22.703455,10.8408096 19.5665207,13.9666646 15.6967397,13.9666646 C14.0620925,13.9666646 12.5582482,13.4089056 11.3662287,12.4739418 C12.9960097,11.1955179 14.0426277,9.21213791 14.0426277,6.98498076 C14.0426277,4.75782361 12.9960097,2.77424965 11.3662287,1.4960197 C12.5582482,0.561055872 14.0620925,0.00329690626 15.6967397,0.00329690626 C19.5665207,0.00329690626 22.703455,3.12895798 22.703455,6.98498076 Z" id="Fill-3" fill="#F79E1B"></path>
                    <path d="M36.6983942,7.01504079 C36.6983942,6.19915346 37.2346472,5.52910574 38.1121168,5.52910574 C38.9504623,5.52910574 39.5159124,6.17006311 39.5159124,7.01504079 C39.5159124,7.86021241 38.9504623,8.50136371 38.1121168,8.50136371 C37.2346472,8.50136371 36.6983942,7.83112206 36.6983942,7.01504079 Z M40.4714355,7.01504079 L40.4714355,4.69363091 L39.4575182,4.69363091 L39.4575182,5.25701401 C39.1357664,4.83927659 38.6483698,4.57707557 37.9852068,4.57707557 C36.6789294,4.57707557 35.6552798,5.59698322 35.6552798,7.01504079 C35.6552798,8.43329229 36.6789294,9.45339387 37.9852068,9.45339387 C38.6483698,9.45339387 39.1357664,9.19099892 39.4575182,8.77326151 L39.4575182,9.33664461 L40.4714355,9.33664461 L40.4714355,7.01504079 Z M74.7108516,7.01504079 C74.7108516,6.19915346 75.2471046,5.52910574 76.1243796,5.52910574 C76.9629197,5.52910574 77.5283698,6.17006311 77.5283698,7.01504079 C77.5283698,7.86021241 76.9629197,8.50136371 76.1243796,8.50136371 C75.2471046,8.50136371 74.7108516,7.83112206 74.7108516,7.01504079 Z M79.6181022,9.11633369 L79.6181022,9.1892535 L79.6854501,9.1892535 C79.7008273,9.1892535 79.7132847,9.18615053 79.7224331,9.18013853 C79.7315815,9.17412652 79.736253,9.16481761 79.736253,9.15240573 C79.736253,9.14038171 79.7315815,9.13126674 79.7224331,9.12525473 C79.7132847,9.11924273 79.7008273,9.11633369 79.6854501,9.11633369 L79.6181022,9.11633369 Z M79.6862287,9.06494074 C79.7214599,9.06494074 79.7487105,9.07269817 79.7677859,9.08840696 C79.7868613,9.10411575 79.796399,9.12544867 79.796399,9.15240573 C79.796399,9.17490226 79.7888078,9.19371402 79.7734307,9.2082592 C79.7582482,9.22299831 79.7366423,9.23211328 79.7086131,9.23541019 L79.7985401,9.33858396 L79.7282725,9.33858396 L79.6449635,9.23618593 L79.6181022,9.23618593 L79.6181022,9.33858396 L79.5593187,9.33858396 L79.5593187,9.06494074 L79.6862287,9.06494074 Z M79.6687105,9.43264276 C79.7006326,9.43264276 79.7304136,9.42663075 79.7580535,9.41460674 C79.7854988,9.40238879 79.809635,9.3860982 79.8304623,9.36534708 C79.8512895,9.3447899 79.8674453,9.32035401 79.8793187,9.29242727 C79.8911922,9.26450054 79.8970316,9.23463445 79.8970316,9.202829 C79.8970316,9.17121748 79.8911922,9.14135139 79.8793187,9.11342466 C79.8674453,9.08549792 79.8512895,9.06106203 79.8304623,9.04031091 C79.809635,9.01975373 79.7854988,9.00346314 79.7580535,8.99163306 C79.7304136,8.97980299 79.7006326,8.97398492 79.6687105,8.97398492 C79.636399,8.97398492 79.6060341,8.97980299 79.5778102,8.99163306 C79.5495864,9.00346314 79.5250608,9.01975373 79.5042336,9.04031091 C79.4834063,9.06106203 79.467056,9.08549792 79.4551825,9.11342466 C79.4435036,9.14135139 79.4374696,9.17121748 79.4374696,9.202829 C79.4374696,9.23463445 79.4435036,9.26450054 79.4551825,9.29242727 C79.467056,9.32035401 79.4834063,9.3447899 79.5042336,9.36534708 C79.5250608,9.3860982 79.5495864,9.40238879 79.5778102,9.41460674 C79.6060341,9.42663075 79.636399,9.43264276 79.6687105,9.43264276 Z M79.6687105,8.90824073 C79.710365,8.90824073 79.7492944,8.91599815 79.7858881,8.93131907 C79.8222871,8.94683392 79.8542092,8.96777897 79.8814599,8.9945421 C79.9087105,9.02130522 79.9303163,9.05252886 79.9460827,9.08840696 C79.9616545,9.12428505 79.969635,9.16249038 79.969635,9.202829 C79.969635,9.24336155 79.9616545,9.28137294 79.9460827,9.3170571 C79.9303163,9.35254733 79.9087105,9.38377097 79.8814599,9.41053409 C79.8542092,9.43729721 79.8222871,9.4584362 79.7858881,9.47414499 C79.7492944,9.48985378 79.710365,9.49761121 79.6687105,9.49761121 C79.6262774,9.49761121 79.5865693,9.48985378 79.5495864,9.47414499 C79.5126034,9.4584362 79.4804866,9.43729721 79.4534307,9.41053409 C79.4263747,9.38377097 79.4049635,9.35254733 79.3893917,9.3170571 C79.3736253,9.28137294 79.3658394,9.24336155 79.3658394,9.202829 C79.3658394,9.16249038 79.3736253,9.12428505 79.3893917,9.08840696 C79.4049635,9.05252886 79.4263747,9.02130522 79.4534307,8.9945421 C79.4804866,8.96777897 79.5126034,8.94683392 79.5495864,8.93131907 C79.5865693,8.91599815 79.6262774,8.90824073 79.6687105,8.90824073 Z M78.4838929,7.01504079 L78.4838929,2.82855164 L77.469781,2.82855164 L77.469781,5.25701401 C77.1480292,4.83927659 76.6606326,4.57707557 75.9976642,4.57707557 C74.6913869,4.57707557 73.6675426,5.59698322 73.6675426,7.01504079 C73.6675426,8.43329229 74.6913869,9.45339387 75.9976642,9.45339387 C76.6606326,9.45339387 77.1480292,9.19099892 77.469781,8.77326151 L77.469781,9.33664461 L78.4838929,9.33664461 L78.4838929,7.01504079 Z M53.0479805,5.48042789 C53.7012165,5.48042789 54.120292,5.88827459 54.2275426,6.60719409 L51.8098297,6.60719409 C51.9170803,5.93695244 52.3264234,5.48042789 53.0479805,5.48042789 Z M53.0674453,4.57707557 C51.7025791,4.57707557 50.7472506,5.56769894 50.7472506,7.01504079 C50.7472506,8.49166692 51.7415085,9.45339387 53.1357664,9.45339387 C53.8376642,9.45339387 54.4811679,9.27846391 55.046618,8.80254579 L54.5492944,8.05453594 C54.1594161,8.36522087 53.6620925,8.54015084 53.1941606,8.54015084 C52.5409246,8.54015084 51.9462774,8.23916269 51.8000973,7.40368786 L55.2611192,7.40368786 C55.2708516,7.27743574 55.2805839,7.15118362 55.2805839,7.01504079 C55.2708516,5.56769894 54.3739173,4.57707557 53.0674453,4.57707557 Z M65.3027737,7.01504079 C65.3027737,6.19915346 65.8390268,5.52910574 66.7164964,5.52910574 C67.5548418,5.52910574 68.120292,6.17006311 68.120292,7.01504079 C68.120292,7.86021241 67.5548418,8.50136371 66.7164964,8.50136371 C65.8390268,8.50136371 65.3027737,7.83112206 65.3027737,7.01504079 Z M69.0758151,7.01504079 L69.0758151,4.69363091 L68.0618978,4.69363091 L68.0618978,5.25701401 C67.740146,4.83927659 67.2527494,4.57707557 66.5895864,4.57707557 C65.283309,4.57707557 64.2596594,5.59698322 64.2596594,7.01504079 C64.2596594,8.43329229 65.283309,9.45339387 66.5895864,9.45339387 C67.2527494,9.45339387 67.740146,9.19099892 68.0618978,8.77326151 L68.0618978,9.33664461 L69.0758151,9.33664461 L69.0758151,7.01504079 Z M59.5799513,7.01504079 C59.5799513,8.42359551 60.5646715,9.45339387 62.06618,9.45339387 C62.7680779,9.45339387 63.2358151,9.29785747 63.742871,8.89951362 L63.2554745,8.08362629 C62.8753285,8.35571802 62.4755231,8.50136371 62.0367883,8.50136371 C61.2276399,8.49166692 60.6329927,7.90869632 60.6329927,7.01504079 C60.6329927,6.12157919 61.2276399,5.53860859 62.0367883,5.52910574 C62.4755231,5.52910574 62.8753285,5.67455749 63.2554745,5.94664922 L63.742871,5.13076189 C63.2358151,4.73241804 62.7680779,4.57707557 62.06618,4.57707557 C60.5646715,4.57707557 59.5799513,5.60668001 59.5799513,7.01504079 Z M72.6438929,4.57707557 C72.0589781,4.57707557 71.6788321,4.84897337 71.4156691,5.25701401 L71.4156691,4.69363091 L70.4114842,4.69363091 L70.4114842,9.33664461 L71.4252068,9.33664461 L71.4252068,6.73344621 C71.4252068,5.96604279 71.7568856,5.53860859 72.4196594,5.53860859 C72.6244282,5.53860859 72.8389294,5.56769894 73.0534307,5.65516392 L73.3654501,4.70332769 C73.1412165,4.61586271 72.8486618,4.57707557 72.6438929,4.57707557 Z M45.4826277,5.06269047 C44.9950365,4.74211482 44.3223358,4.57707557 43.5815085,4.57707557 C42.4017518,4.57707557 41.6412652,5.14045867 41.6412652,6.06320456 C41.6412652,6.82091119 42.2067153,7.28713252 43.2498297,7.43277821 L43.7276886,7.50084962 C44.2834063,7.57842389 44.5465693,7.72426351 44.5465693,7.98646452 C44.5465693,8.34602124 44.1761557,8.54984762 43.4839903,8.54984762 C42.7818978,8.54984762 42.2750365,8.32643374 41.93382,8.06423272 L41.4561557,8.85102971 C42.0116788,9.25907034 42.7137713,9.45339387 43.4740633,9.45339387 C44.8194647,9.45339387 45.5994161,8.82174542 45.5994161,7.93798061 C45.5994161,7.12189934 44.9853041,6.69465907 43.9713869,6.54881946 L43.4937226,6.48094197 C43.0549878,6.42256734 42.7040389,6.33529629 42.7040389,6.02441742 C42.7040389,5.68444821 43.0353285,5.48042789 43.5912409,5.48042789 C44.1858881,5.48042789 44.7610706,5.70384177 45.0438929,5.87877174 L45.4826277,5.06269047 Z M58.5563017,4.57707557 C57.9713869,4.57707557 57.5910462,4.84897337 57.3278832,5.25701401 L57.3278832,4.69363091 L56.3236983,4.69363091 L56.3236983,9.33664461 L57.3376156,9.33664461 L57.3376156,6.73344621 C57.3376156,5.96604279 57.6690998,5.53860859 58.3320681,5.53860859 C58.536837,5.53860859 58.7513382,5.56769894 58.9658394,5.65516392 L59.2776642,4.70332769 C59.0534307,4.61586271 58.7610706,4.57707557 58.5563017,4.57707557 Z M49.9087105,4.69363091 L48.2512895,4.69363091 L48.2512895,3.28507619 L47.2276399,3.28507619 L47.2276399,4.69363091 L46.2818491,4.69363091 L46.2818491,5.61637679 L47.2276399,5.61637679 L47.2276399,7.73396029 C47.2276399,8.81224257 47.64691,9.45339387 48.8459367,9.45339387 C49.2846715,9.45339387 49.7917275,9.31725104 50.1132847,9.09383716 L49.8209246,8.22927197 C49.5186375,8.40420194 49.1871533,8.49166692 48.9239903,8.49166692 C48.4169343,8.49166692 48.2512895,8.18078806 48.2512895,7.71456672 L48.2512895,5.61637679 L49.9087105,5.61637679 L49.9087105,4.69363091 Z M34.7583455,9.33664461 L34.7583455,6.42256734 C34.7583455,5.32489149 34.0564477,4.58677236 32.9255474,4.57707557 C32.3309002,4.56737879 31.7165937,4.75181161 31.2875912,5.40265969 C30.9658394,4.88795444 30.4587835,4.57707557 29.7471533,4.57707557 C29.2500243,4.57707557 28.7626277,4.72272126 28.3822871,5.26671079 L28.3822871,4.69363091 L27.3683698,4.69363091 L27.3683698,9.33664461 L28.3920195,9.33664461 L28.3920195,6.76253656 C28.3920195,5.95634601 28.8404866,5.52910574 29.5326521,5.52910574 C30.2053528,5.52910574 30.546764,5.96604279 30.546764,6.75283977 L30.546764,9.33664461 L31.5704136,9.33664461 L31.5704136,6.76253656 C31.5704136,5.95634601 32.0383455,5.52910574 32.7110462,5.52910574 C33.4032117,5.52910574 33.7346959,5.96604279 33.7346959,6.75283977 L33.7346959,9.33664461 L34.7583455,9.33664461 Z" id="Fill-4" fill="#808080"></path>
                </g>
            </g>
        </g>
    </g>
</svg>