<?xml version="1.0" encoding="utf-8"?>
<!-- Generator: Adobe Illustrator 19.1.0, SVG Export Plug-In . SVG Version: 6.00 Build 0)  -->
<svg version="1.1" id="Layer_1" xmlns="http://www.w3.org/2000/svg" xmlns:xlink="http://www.w3.org/1999/xlink" x="0px" y="0px"
	 viewBox="0 0 292 50" enable-background="new 0 0 292 50" xml:space="preserve">
<g>
	<circle fill="#231F20" cx="20.4" cy="29.2" r="3.3"/>
	<circle fill="#231F20" cx="60.2" cy="29.2" r="3.3"/>
	<g>
		<path fill="#231F20" d="M13.4,22.3c-1.8,1.8-2.9,4.3-2.9,6.9c0,2.6,1,5.1,2.9,6.9c1.8,1.8,4.3,2.9,6.9,2.9c5.4,0,9.8-4.4,9.8-9.8
			c0-5.4-4.4-9.8-9.8-9.8C17.7,19.4,15.3,20.4,13.4,22.3z M15.6,34c-1.3-1.3-2-3-2-4.8c0-1.8,0.7-3.5,2-4.8c1.3-1.3,3-2,4.8-2
			c3.7,0,6.8,3,6.8,6.8c0,3.7-3,6.8-6.8,6.8C18.5,35.9,16.8,35.2,15.6,34z"/>
	</g>
	<g>
		<path fill="#231F20" d="M53.3,22.3c-1.8,1.8-2.9,4.3-2.9,6.9c0,2.6,1,5.1,2.9,6.9c1.8,1.8,4.3,2.9,6.9,2.9c5.4,0,9.8-4.4,9.8-9.8
			c0-5.4-4.4-9.8-9.8-9.8C57.6,19.4,55.2,20.4,53.3,22.3z M55.5,34c-1.3-1.3-2-3-2-4.8c0-1.8,0.7-3.5,2-4.8c1.3-1.3,3-2,4.8-2
			c3.7,0,6.8,3,6.8,6.8c0,3.7-3,6.8-6.8,6.8C58.4,35.9,56.7,35.2,55.5,34z"/>
	</g>
	<g>
		<path fill="none" d="M60.2,12.8c-9,0-16.4,7.3-16.4,16.3c0,9,7.3,16.3,16.4,16.3s16.4-7.3,16.4-16.3
			C76.6,20.2,69.3,12.8,60.2,12.8z"/>
		<path fill="none" d="M20.4,12.8c-9,0-16.4,7.3-16.4,16.3c0,9,7.3,16.3,16.4,16.3c9,0,16.4-7.3,16.4-16.3
			C36.7,20.2,29.4,12.8,20.4,12.8z"/>
	</g>
	<path fill="#231F20" d="M76,16.3c0.8-2.3,1.9-5,3.6-6.6H66.2c-0.2-0.1-0.5-0.1-0.7-0.2C64.8,8.4,57.8,0,40,0
		C20.4,0,14.3,9.7,14.3,9.7H0.3c1.8,1.8,3,4.8,3.8,7.2C1.5,20.4,0,24.6,0,29.2c0,11.2,9.1,20.3,20.4,20.3c6.2,0,11.8-2.8,15.5-7.2
		l4.6,6.5l4-6.7c3.7,4.6,9.4,7.5,15.7,7.5c11.2,0,20.4-9.1,20.4-20.3C80.6,24.3,78.9,19.8,76,16.3z M20.4,45.5
		c-9,0-16.4-7.3-16.4-16.3c0-9,7.3-16.3,16.4-16.3c9,0,16.4,7.3,16.4,16.3C36.7,38.2,29.4,45.5,20.4,45.5z M20.6,10.1
		c0,0,5.2-5.8,19.2-5.8h1.4c13.9,0,19.2,5.8,19.2,5.8S45.5,7.7,40.5,26C35.5,7.7,20.6,10.1,20.6,10.1z M60.2,45.5
		c-9,0-16.4-7.3-16.4-16.3c0-9,7.3-16.3,16.4-16.3c9,0,16.4,7.3,16.4,16.3C76.6,38.2,69.3,45.5,60.2,45.5z"/>
	<path d="M95.7,14.1v5.2h5.7v3h-5.7v11.7c0,2.7,0.8,4.2,3,4.2c1.1,0,1.7-0.1,2.3-0.3l0.2,3c-0.8,0.3-2,0.5-3.5,0.5
		c-1.8,0-3.3-0.6-4.3-1.7c-1.1-1.2-1.5-3.1-1.5-5.7V22.4h-3.4v-3h3.4v-4L95.7,14.1z"/>
	<path d="M104.9,26.1c0-2.6,0-4.8-0.2-6.8h3.5l0.2,4.3h0.1c1-2.9,3.4-4.8,6.1-4.8c0.4,0,0.7,0,1.1,0.1v3.7c-0.4,0-0.9-0.1-1.4-0.1
		c-2.8,0-4.8,2.1-5.3,5c-0.1,0.6-0.1,1.2-0.1,1.9v11.6h-4L104.9,26.1z"/>
	<path d="M120.7,15.4c-1.5,0-2.5-1.2-2.5-2.6s1-2.5,2.6-2.5c1.5,0,2.5,1.1,2.5,2.5S122.3,15.4,120.7,15.4L120.7,15.4z M118.8,41.1
		V19.4h4v21.7H118.8z"/>
	<path d="M128.3,26.5c0-2.8,0-5-0.2-7.1h3.6l0.2,3.7h0.1c1.6-2.7,4.2-4.2,7.7-4.2c5.3,0,9.3,4.4,9.3,11.1c0,7.8-4.8,11.7-9.9,11.7
		c-2.9,0-5.4-1.3-6.7-3.4h-0.1V50h-4V26.5z M132.3,32.2c0,0.5,0,1.1,0.2,1.6c0.7,2.7,3.1,4.6,5.9,4.6c4.2,0,6.6-3.4,6.6-8.4
		c0-4.4-2.2-8.1-6.4-8.1c-2.7,0-5.3,1.9-6,4.9c-0.1,0.5-0.2,1.1-0.2,1.6V32.2z"/>
	<path fill="#231F20" d="M168.3,35.9c0,1.9,0.1,3.7,0.3,5.2h-3.6l-0.4-2.7h-0.1c-1.2,1.7-3.6,3.2-6.7,3.2c-4.4,0-6.7-3.1-6.7-6.2
		c0-5.3,4.7-8.1,13.1-8.1v-0.4c0-1.8-0.5-5.1-4.9-5c-2.1,0-4.2,0.6-5.7,1.6l-0.9-2.7c1.8-1.1,4.5-1.9,7.2-1.9c6.7,0,8.3,4.5,8.3,8.9
		V35.9z M164.5,30c-4.3-0.1-9.2,0.7-9.2,4.9c0,2.6,1.7,3.8,3.7,3.8c2.9,0,4.7-1.8,5.4-3.6c0.1-0.4,0.2-0.9,0.2-1.3V30z"/>
	<path fill="#231F20" d="M192.5,9.2v26.3c0,1.9,0,4.1,0.2,5.6h-3.6l-0.2-3.8h-0.1c-1.2,2.4-3.8,4.3-7.4,4.3c-5.3,0-9.4-4.4-9.4-11.1
		c0-7.3,4.5-11.7,9.8-11.7c3.4,0,5.6,1.6,6.6,3.3h0.1V9.2H192.5z M188.6,28.2c0-0.5,0-1.2-0.2-1.7c-0.6-2.5-2.7-4.5-5.7-4.5
		c-4.1,0-6.5,3.6-6.5,8.4c0,4.4,2.2,8.1,6.4,8.1c2.7,0,5.1-1.8,5.8-4.7c0.1-0.5,0.2-1.1,0.2-1.7V28.2z"/>
	<path fill="#231F20" d="M199.6,19.4l4.3,12.2c0.7,2,1.3,3.8,1.8,5.6h0.1c0.5-1.8,1.1-3.6,1.8-5.6l4.2-12.2h4.1l-8.5,21.7h-3.8
		l-8.3-21.7H199.6z"/>
	<path fill="#231F20" d="M220.7,15.4c-1.5,0-2.5-1.2-2.5-2.6s1-2.5,2.6-2.5c1.5,0,2.5,1.1,2.5,2.5S222.3,15.4,220.7,15.4L220.7,15.4
		z M218.8,41.1V19.4h4v21.7H218.8z"/>
	<path fill="#231F20" d="M227.8,37.1c1.2,0.7,3.3,1.5,5.3,1.5c2.8,0,4.2-1.4,4.2-3.2c0-1.9-1.1-2.9-4-4c-4-1.4-5.8-3.5-5.8-6.2
		c0-3.5,2.9-6.4,7.5-6.4c2.2,0,4.1,0.6,5.3,1.3l-0.9,2.8c-0.9-0.5-2.4-1.3-4.5-1.3c-2.3,0-3.6,1.3-3.6,3c0,1.8,1.3,2.7,4.1,3.7
		c3.7,1.4,5.7,3.3,5.7,6.6c0,3.9-3,6.6-8.1,6.6c-2.4,0-4.6-0.6-6.1-1.5L227.8,37.1z"/>
	<path fill="#231F20" d="M254.1,41.6c-5.8,0-10.4-4.3-10.4-11.2c0-7.3,4.8-11.5,10.8-11.5c6.2,0,10.5,4.5,10.5,11.1
		C264.9,38.1,259.3,41.6,254.1,41.6L254.1,41.6z M254.2,38.6c3.8,0,6.6-3.5,6.6-8.5c0-3.7-1.8-8.3-6.5-8.3c-4.6,0-6.7,4.3-6.7,8.4
		C247.6,35,250.3,38.6,254.2,38.6L254.2,38.6z"/>
	<path fill="#231F20" d="M269,26.1c0-2.6,0-4.8-0.2-6.8h3.5l0.2,4.3h0.1c1-2.9,3.4-4.8,6.1-4.8c0.4,0,0.7,0,1.1,0.1v3.7
		c-0.4,0-0.9-0.1-1.4-0.1c-2.8,0-4.8,2.1-5.3,5c-0.1,0.6-0.1,1.2-0.1,1.9v11.6h-4L269,26.1z"/>
	<g>
		<g>
			<g>
				<path fill="#231F20" d="M285.7,19.1c0.3-0.1,0.8-0.1,1.4-0.1c0.7,0,1.1,0.1,1.5,0.4c0.3,0.2,0.4,0.5,0.4,1c0,0.6-0.4,1-0.8,1.1
					v0c0.3,0.1,0.5,0.4,0.6,0.9c0.1,0.5,0.3,1.1,0.4,1.3h-1c-0.1-0.1-0.2-0.5-0.3-1.1c-0.1-0.6-0.3-0.7-0.7-0.7h-0.3v1.8h-1V19.1z
					 M286.7,21.1h0.4c0.5,0,0.8-0.3,0.8-0.7c0-0.4-0.3-0.6-0.8-0.6c-0.2,0-0.4,0-0.5,0V21.1z"/>
			</g>
			<g>
				<path fill="#231F20" d="M282.7,21.5c0,2.6,2.1,4.6,4.6,4.6c2.6,0,4.6-2.1,4.6-4.6c0-2.6-2.1-4.6-4.6-4.6
					C284.8,16.9,282.7,18.9,282.7,21.5z M283.7,21.5c0-2,1.6-3.6,3.6-3.6c2,0,3.6,1.6,3.6,3.6c0,2-1.6,3.6-3.6,3.6
					C285.4,25.1,283.7,23.5,283.7,21.5z"/>
			</g>
		</g>
	</g>
</g>
</svg>
