<svg id="Layer_1" data-name="Layer 1" xmlns="http://www.w3.org/2000/svg" xmlns:xlink="http://www.w3.org/1999/xlink" viewBox="0 0 641.54 166.89"><defs><style>.cls-1{fill:#00a1f3;}.cls-2{fill:#fb0;}.cls-3{fill:#db2630;}.cls-4{fill:url(#linear-gradient);}.cls-5{fill:#ff7300;}.cls-6{fill:#333;}.cls-7{fill:url(#radial-gradient);}.cls-8{fill:#fff;}.cls-9{fill:#f9b900;}.cls-10{fill:#ffd400;}.cls-11{fill:url(#linear-gradient-2);}</style><linearGradient id="linear-gradient" x1="285.32" y1="445.01" x2="261.73" y2="485.88" gradientUnits="userSpaceOnUse"><stop offset="0" stop-color="#ff9700"/><stop offset="1" stop-color="#da2530"/></linearGradient><radialGradient id="radial-gradient" cx="255.01" cy="501.16" r="74.33" gradientUnits="userSpaceOnUse"><stop offset="0" stop-color="#3d3d3d"/><stop offset="0.69"/></radialGradient><linearGradient id="linear-gradient-2" x1="194" y1="149.89" x2="117" y2="149.89" gradientUnits="userSpaceOnUse"><stop offset="0" stop-color="#161616"/><stop offset="0.69"/></linearGradient></defs><title>logo</title><path class="cls-1" d="M369.93,524.52v16.92h-8.86q-11.28,0-17.55-5.58t-6.27-18.47V493.8h-8.63V477.23h8.63V461.47h19.68v15.76h12.89V493.8H356.93v23.93q0,3.8,1.55,5.29t5.24,1.5Z" transform="translate(-186 -420.11)"/><path class="cls-1" d="M410.15,480a24.23,24.23,0,0,1,12.6-3.45V497.6h-5.64q-7.83,0-12.14,3.34t-4.31,11.28v29.23H381V477.23h19.68v12.08A27.91,27.91,0,0,1,410.15,480Z" transform="translate(-186 -420.11)"/><path class="cls-1" d="M468.08,479.76a20.08,20.08,0,0,1,7.82,9.09V477.23h19.56v64.21H475.91V529.82a20.06,20.06,0,0,1-7.82,9.09,23.24,23.24,0,0,1-12.66,3.34,26,26,0,0,1-14.21-4,27.15,27.15,0,0,1-9.9-11.45,44.15,44.15,0,0,1,0-35,27.22,27.22,0,0,1,9.9-11.39,26,26,0,0,1,14.21-4A23.26,23.26,0,0,1,468.08,479.76Zm-16.51,18.07q-3.86,4.14-3.85,11.51t3.85,11.51a14.45,14.45,0,0,0,20.37-.12q4-4.26,4-11.39t-4-11.45a13.39,13.39,0,0,0-10.18-4.2A13.26,13.26,0,0,0,451.57,497.83Z" transform="translate(-186 -420.11)"/><path class="cls-2" d="M538.73,522.22l13.92-45H573.6l-22.78,64.21H526.42l-22.78-64.21h20.94Z" transform="translate(-186 -420.11)"/><path class="cls-2" d="M642.18,512.9H597.64q.35,7.25,3.68,10.41a11.87,11.87,0,0,0,8.51,3.16,11.64,11.64,0,0,0,7.25-2.19,10.22,10.22,0,0,0,3.8-5.64h20.83a27.22,27.22,0,0,1-5.52,12.14,29.41,29.41,0,0,1-10.82,8.4,36.94,36.94,0,0,1-31.36-.92,28.35,28.35,0,0,1-11.45-11.45,39.36,39.36,0,0,1-.06-35A28,28,0,0,1,594,480.4a37.77,37.77,0,0,1,33.6-.06,27.64,27.64,0,0,1,11.22,11,32.71,32.71,0,0,1,4,16.28A27.2,27.2,0,0,1,642.18,512.9Zm-22.73-17.78a12.5,12.5,0,0,0-8.69-3.16,12.89,12.89,0,0,0-9,3.22q-3.57,3.22-4,9.44h25.08Q623,498.29,619.45,495.13Z" transform="translate(-186 -420.11)"/><path class="cls-2" d="M672.67,456.29v85.15H653V456.29Z" transform="translate(-186 -420.11)"/><path class="cls-3" d="M723.29,479.76a20.09,20.09,0,0,1,7.82,9.09V477.23h19.56v63.86a36.89,36.89,0,0,1-3.45,16.17,26.49,26.49,0,0,1-10.59,11.45Q729.51,573,718.92,573q-14.5,0-23.19-6.85t-10.41-18.58h19.45a9.75,9.75,0,0,0,4.2,6.1,15.2,15.2,0,0,0,8.57,2.19,13.8,13.8,0,0,0,9.84-3.51q3.74-3.51,3.74-11.22V529.82a20.07,20.07,0,0,1-7.82,9.09,23.24,23.24,0,0,1-12.66,3.34,26,26,0,0,1-14.21-4,27.14,27.14,0,0,1-9.89-11.45,44.15,44.15,0,0,1,0-35,27.21,27.21,0,0,1,9.89-11.39,26,26,0,0,1,14.21-4A23.26,23.26,0,0,1,723.29,479.76Zm-16.51,18.07q-3.86,4.14-3.85,11.51t3.85,11.51a14.44,14.44,0,0,0,20.37-.12q4-4.26,4-11.39t-4-11.45a13.39,13.39,0,0,0-10.18-4.2A13.26,13.26,0,0,0,706.78,497.83Z" transform="translate(-186 -420.11)"/><path class="cls-3" d="M811.38,480.4a29.11,29.11,0,0,1,11.85,11.45,37.61,37.61,0,0,1,0,35,29.1,29.1,0,0,1-11.85,11.45,38.88,38.88,0,0,1-34.23,0,29,29,0,0,1-11.91-11.45,37.6,37.6,0,0,1,0-35,29,29,0,0,1,11.91-11.45,38.88,38.88,0,0,1,34.23,0ZM784.8,497.54q-3.86,4.09-3.86,11.79t3.86,11.74a12.61,12.61,0,0,0,9.49,4,12.44,12.44,0,0,0,9.44-4q3.8-4,3.8-11.74t-3.8-11.79a12.36,12.36,0,0,0-9.44-4.08A12.53,12.53,0,0,0,784.8,497.54Z" transform="translate(-186 -420.11)"/><path class="cls-4" d="M260.23,425.45S311.58,427.09,299,509c0,0-14.19-17.61-42.1-23.67a24,24,0,0,1-14.08-9.08c-3.14-4.2-6.35-10.34-8.28-19.14C230.73,439.65,249.85,423.26,260.23,425.45Z" transform="translate(-186 -420.11)"/><path class="cls-5" d="M235.65,443.47,234,454.95s43.15,4.37,64.46,51.35C298.47,506.29,293,452.76,235.65,443.47Z" transform="translate(-186 -420.11)"/><path class="cls-2" d="M299,510.12s12-65.28-36.84-84.55a2.34,2.34,0,0,0-.67-.15c-6.19-.52-21.74-.41-24.77,20.78C236.74,446.21,285.36,450.58,299,510.12Z" transform="translate(-186 -420.11)"/><path class="cls-6" d="M299,509s9.56-46.79-8.74-42.61C271.15,470.79,299,509,299,509Z" transform="translate(-186 -420.11)"/><path class="cls-7" d="M258.59,423.81s-17.48-7.1-44.79-1.64c0,0,10.92,0,10.92.55A56.16,56.16,0,0,0,204,437.47l6.55-1.64s-34.41,44.79-18,87.94,57.36,58.45,84.12,58.45A79,79,0,0,0,322,567.47a219.37,219.37,0,0,0-8.33-21.21c-5.62-12.41-13.76-27.16-23.35-35.05a166.85,166.85,0,0,0-31-19.76,40.39,40.39,0,0,1-18.79-19.67C235.14,459.6,234.69,442,258.59,423.81Z" transform="translate(-186 -420.11)"/><path class="cls-8" d="M224.36,442.93s-6.55,44.79,5.46,60.09c0,0-27.31,21.85-43.7-5.46C186.13,497.55,181.76,451.67,224.36,442.93Z" transform="translate(-186 -420.11)"/><path class="cls-9" d="M240.12,430S215.6,434.26,217,450.07c.56,6.1,8.08,8.89,12.29,4.44a18.13,18.13,0,0,0,2.43-3.3A73.34,73.34,0,0,0,240.12,430Z" transform="translate(-186 -420.11)"/><path class="cls-1" d="M233.68,439.52a4.39,4.39,0,0,1-.06.91c-.35,2.21-2.22,11.12-10,11.12,0,0-3.56,0-2.37-5.23.82-3.63,3.65-7,5.3-8.69a5.18,5.18,0,0,1,4.18-1.62C232.14,436.16,233.55,437,233.68,439.52Z" transform="translate(-186 -420.11)"/><ellipse cx="42.82" cy="22.82" rx="4.1" ry="4.37"/><ellipse class="cls-10" cx="45.55" cy="21.73" rx="0.82" ry="1.09"/><polygon class="cls-11" points="117 132.89 194 144.89 162 166.89 125 153.89 117 132.89"/></svg>